<svg xmlns="http://www.w3.org/2000/svg" width="149.044" height="30.028" viewBox="0 0 149.044 30.028">
  <defs>
    <style>
      .cls-1 {
        fill: #46aac6;
      }
    </style>
  </defs>
  <path id="Union_1" data-name="Union 1" class="cls-1" d="M139,30.028v-2.57h1.131c1.851,0,2.674-1.1,2.674-3.257V19.23a3.893,3.893,0,0,1,3.36-4.217A3.893,3.893,0,0,1,142.8,10.8V5.828c0-2.16-.823-3.256-2.674-3.256H139V0h1.474c3.668,0,5.142,2.468,5.142,6.033v4.046c0,2.536,1.44,3.461,3.428,3.461v2.948c-1.988,0-3.428.925-3.428,3.462v4.045c0,3.565-1.473,6.033-5.142,6.033Zm-130.43,0c-3.668,0-5.142-2.468-5.142-6.033V19.95c0-2.537-1.44-3.462-3.428-3.462V13.54c1.988,0,3.428-.925,3.428-3.461V6.033C3.428,2.468,4.9,0,8.57,0h1.474V2.571H8.913c-1.851,0-2.674,1.1-2.674,3.256V10.8a3.893,3.893,0,0,1-3.36,4.217,3.893,3.893,0,0,1,3.36,4.217V24.2c0,2.16.823,3.257,2.674,3.257h1.131v2.57Zm33.992-2.106,2.346-5.083-5.5-12.317h3.837l3.568,8.163,3.543-8.163H54.2l-7.771,17.4Zm11.877-7.967L57.47,19a2.221,2.221,0,0,0,2.1,1.515A1.242,1.242,0,0,0,60.94,19.49c0-.245-.2-.562-.806-.806l-1.49-.538C56.1,17.217,54.9,15.922,54.9,14.114c0-2.371,2.2-3.764,4.619-3.764a4.861,4.861,0,0,1,4.839,3.372l-3.251.856c-.342-.88-.855-1.174-1.417-1.174-.513,0-1.026.293-1.026.782,0,.464.293.733.855.929l1.613.563c1.809.66,3.641,1.319,3.641,3.861,0,2.566-2.566,4.032-5.206,4.032A5.109,5.109,0,0,1,54.439,19.955ZM106.371,16.9a6.263,6.263,0,0,1,6.256-6.549,4.211,4.211,0,0,1,3.275,1.393V10.57h3.861V23.278H115.9V22.007a3.7,3.7,0,0,1-3.275,1.516A6.224,6.224,0,0,1,106.371,16.9Zm3.74,0a2.989,2.989,0,0,0,3.079,3.227c1.589,0,2.884-1.1,2.884-3.227a2.849,2.849,0,0,0-2.884-3.153A2.968,2.968,0,0,0,110.111,16.9Zm-30.255.05a6.625,6.625,0,0,1,6.647-6.6,6.013,6.013,0,0,1,5.474,3.03l-2.932,1.393a3.258,3.258,0,0,0-2.493-1.027,3,3,0,0,0-2.956,3.2,2.946,2.946,0,0,0,2.956,3.127,3.242,3.242,0,0,0,2.493-.977l2.982,1.393A6.05,6.05,0,0,1,86.5,23.474,6.509,6.509,0,0,1,79.855,16.949Zm51.125,6.329V16.264c0-1.931-.66-2.542-1.882-2.542a3.491,3.491,0,0,0-2.982,2.42v7.135h-3.861V10.57h3.861v2.2a4.394,4.394,0,0,1,3.935-2.395c2.371,0,4.79,1.589,4.79,5.621v7.282Zm-37.611,0,6.11-9.335H93.932V10.57h11.705l-6.109,9.336h5.694v3.372Zm-27.248,0,6.109-9.335H66.683V10.57H78.389l-6.11,9.336h5.694v3.372Zm-37.22,0V10.57h3.862v3.1a4.352,4.352,0,0,1,4.3-3.3,4.474,4.474,0,0,1,1,.074v3.69a3.744,3.744,0,0,0-.879-.074A4.349,4.349,0,0,0,32.763,18.1v5.18Zm-6.134,0-4.13-4.937-.806.856v4.081H13.969V6h3.862v8.48l3.592-3.911h4.619l-5.034,5.3,6.158,7.4Z"/>
</svg>
